<svg fill="none" height="16" viewBox="0 0 16 16" width="16" xmlns="http://www.w3.org/2000/svg"><g fill="#282828"><path d="m9.3335 10h2.6667v1.3333h-2.6667z"/><path d="m14.6668 7.32642v6.00688c0 .1768-.0702.3464-.1952.4714-.1251.1251-.2946.1953-.4714.1953h-12.00004c-.17681 0-.34638-.0702-.4714-.1953-.12503-.125-.19526-.2946-.19526-.4714v-10.66663c0-.17681.07023-.34638.19526-.47141.12502-.12502.29459-.19526.4714-.19526h6.97958c-.23424.40492-.39953.85472-.47983 1.33333h-5.83308v2.66667h6.31291c.30958.53518.73961.99198 1.25296 1.33333h-7.56587v5.33337h10.66667v-4.76582c.4836-.10973.9339-.30707 1.3333-.57446z"/><path clip-rule="evenodd" d="m14.5107 1.67406c-.1732-.15388-.3588-.2849-.5532-.39326-1.2467-.6952-2.8516-.458263-3.8388.65308-.98723 1.11134-1.03329 2.733-.19596 3.88906.13056.18021.28256.3491.45576.50299.1732.15388.3589.2849.5532.39327 1.2467.69519 2.8516.45826 3.8388-.65309.9872-1.11134 1.0333-2.73299.196-3.88906-.1306-.18021-.2825-.3491-.4558-.50299zm-1.4896.66092c-.6529-.22576-1.4061-.05349-1.8935.49515-.4873.54864-.5696 1.31693-.2684 1.93864zm-1.153 3.33004 2.1619-2.43379c.3012.6217.2189 1.38999-.2684 1.93863-.4874.54864-1.2406.72091-1.8935.49516z" fill-rule="evenodd"/></g></svg>