<svg width="24px" height="24px" viewBox="0 0 24 24" version="1.1"><title>08E81ABB-1E5B-463C-A091-CD61098ACB5B</title><g id="garage/CC/IB" stroke="none" stroke-width="1" fill="none" fill-rule="evenodd"><g id="dashboard_card-face_PIVOT" transform="translate(-314.000000, -1381.000000)" fill="#696B6F"><g id="navigation-" transform="translate(1.000000, 1372.000000)"><g id="Group-8-Copy-8" transform="translate(291.000000, 9.000000)"><g id="UI/ic/control-center" transform="translate(22.000000, 0.000000)"><path d="M16.5,4 C18.4329966,4 20,5.56700338 20,7.5 C20,9.43299662 18.4329966,11 16.5,11 L7.5,11 C5.56700338,11 4,9.43299662 4,7.5 C4,5.56700338 5.56700338,4 7.5,4 L16.5,4 Z M16.5,5 C15.1192881,5 14,6.11928813 14,7.5 C14,8.88071187 15.1192881,10 16.5,10 C17.8807119,10 19,8.88071187 19,7.5 C19,6.11928813 17.8807119,5 16.5,5 Z" id="Combined-Shape"></path><path d="M16.5,13 C18.4329966,13 20,14.5670034 20,16.5 C20,18.4329966 18.4329966,20 16.5,20 L7.5,20 C5.56700338,20 4,18.4329966 4,16.5 C4,14.5670034 5.56700338,13 7.5,13 L16.5,13 Z M7.5,14 C6.11928813,14 5,15.1192881 5,16.5 C5,17.8807119 6.11928813,19 7.5,19 C8.88071187,19 10,17.8807119 10,16.5 C10,15.1192881 8.88071187,14 7.5,14 Z" id="Combined-Shape"></path></g></g></g></g></g></svg>