<svg fill="none" height="16" viewBox="0 0 16 16" width="16" xmlns="http://www.w3.org/2000/svg"><g fill="#282828"><path d="m12.9169 10.0687c.4325-1.0278.5321-2.16533.2847-3.25265s-.8294-2.06976-1.6641-2.80918c-.8347-.73943-1.88019-1.19866-2.98942-1.31313s-2.22644.12158-3.19456.67496l-.66133-1.158c1.01175-.57826 2.15746-.88109 3.3228-.87828 1.16534.0028 2.30961.31115 3.31851.89428 2.9934 1.728 4.14 5.428 2.7447 8.5133l.8947.516-2.7767 1.476-.11-3.14263zm-9.83338-4.13733c-.43257 1.02779-.53214 2.16532-.28472 3.25264.24742 1.08729.8294 2.06979 1.6641 2.80919.83471.7394 1.88017 1.1987 2.9894 1.3131 1.10922.1145 2.22643-.1216 3.1946-.6749l.6613 1.158c-1.0118.5782-2.15747.8811-3.32281.8782-1.16534-.0028-2.30958-.3111-3.31853-.8942-2.99334-1.728-4.140005-5.42804-2.74467-8.51337l-.89533-.51533 2.77666-1.476.11 3.14266-.83066-.47933z"/><path d="m10 6.11748h-1.41225c.13845.08852.24645.19088.32398.30706.07754.11341.13292.2379.16615.37344h.92212v.78838h-.92627c-.06369.25727-.19107.48548-.38214.68465s-.44168.35408-.75182.46473c.08584.03873.16476.0899.23676.15353.07477.06362.14123.13969.19938.22821l1.50363 2.21582h-1.00934c-.1883 0-.32676-.0747-.41537-.2241l-1.26272-1.92118c-.04708-.07192-.09969-.12309-.15784-.15352-.05538-.03043-.13846-.04565-.24922-.04565h-.7809v-.75518h.82243c.31568 0 .56767-.05948.75597-.17843.19107-.11895.32538-.27524.40291-.46888h-1.98546v-.78838h2.01038c-.06645-.20193-.1966-.35961-.39044-.47303-.19107-.11618-.44998-.17427-.77674-.17427h-.83905v-.81743h3.99585z"/></g></svg>