<svg fill="none" height="14" viewBox="0 0 14 14" width="14" xmlns="http://www.w3.org/2000/svg"><path d="m6.9935.333313c-3.68 0-6.660004 2.986667-6.660004 6.666667 0 3.68002 2.980004 6.66662 6.660004 6.66662 3.6867 0 6.6733-2.9866 6.6733-6.66662 0-3.68-2.9866-6.666667-6.6733-6.666667zm4.62 3.999997h-1.96667c-.21333-.83333-.52-1.63333-.92-2.37333 1.22667.42 2.24667 1.27333 2.88667 2.37333zm-4.61334-2.64c.55334.8.98667 1.68667 1.27334 2.64h-2.54667c.28667-.95333.72-1.84 1.27333-2.64zm-5.16 6.64c-.10666-.42666-.17333-.87333-.17333-1.33333s.06667-.90667.17333-1.33333h2.25334c-.05334.44-.09334.88-.09334 1.33333s.04.89333.09334 1.33333zm.54667 1.33334h1.96667c.21333.83335.52 1.63335.92 2.37335-1.22667-.42-2.24667-1.2667-2.88667-2.37335zm1.96667-5.33334h-1.96667c.64-1.10666 1.66-1.95333 2.88667-2.37333-.4.74-.70667 1.54-.92 2.37333zm2.64666 7.97329c-.55333-.8-.98666-1.6866-1.27333-2.63995h2.54667c-.28667.95335-.72 1.83995-1.27334 2.63995zm1.56-3.97329h-3.12c-.06-.44-.10666-.88-.10666-1.33333s.04666-.9.10666-1.33333h3.12c.06.43333.10667.88.10667 1.33333s-.04667.89333-.10667 1.33333zm.16667 3.70669c.4-.74.70667-1.54.92-2.37335h1.96667c-.64 1.09995-1.66 1.95335-2.88667 2.37335zm1.18-3.70669c.05333-.44.09337-.88.09337-1.33333s-.04004-.89333-.09337-1.33333h2.25337c.1066.42666.1733.87333.1733 1.33333s-.0667.90667-.1733 1.33333z" fill="#282828"/></svg>