<svg width="16" height="16" viewBox="0 0 16 16" fill="none" xmlns="http://www.w3.org/2000/svg">
<path fill-rule="evenodd" clip-rule="evenodd" d="M14.0002 2H2.00016C1.82335 2 1.65378 2.07024 1.52876 2.19526C1.40373 2.32029 1.3335 2.48986 1.3335 2.66667V13.3333C1.3335 13.5101 1.40373 13.6797 1.52876 13.8047C1.65378 13.9298 1.82335 14 2.00016 14H14.0002C14.177 14 14.3465 13.9298 14.4716 13.8047C14.5966 13.6797 14.6668 13.5101 14.6668 13.3333V2.66667C14.6668 2.48986 14.5966 2.32029 14.4716 2.19526C14.3465 2.07024 14.177 2 14.0002 2ZM2.66683 12.6667V7.33333V3.33333H13.3335V7.33333V12.6667H2.66683Z" fill="#09121F"/>
<path d="M4.88921 7.33333H2.66699V6H4.88921V7.33333Z" fill="#09121F"/>
<path d="M13.3337 7.33333H11.1114V6H13.3337V7.33333Z" fill="#09121F"/>
<path d="M8.55561 7.49208V4.44446L5.77783 8.50795H7.4445V11.5556L10.2223 7.49208H8.55561Z" fill="#09121F"/>
</svg>
