<svg fill="none" height="15" viewBox="0 0 12 15" width="12" xmlns="http://www.w3.org/2000/svg"><path d="m10 5.33332h1.3333c.1768 0 .3464.07024.4714.19527.1251.12502.1953.29459.1953.4714v8.00001c0 .1768-.0702.3464-.1953.4714-.125.125-.2946.1953-.4714.1953h-10.666633c-.176811 0-.346381-.0703-.471405-.1953-.1250241-.125-.195262-.2946-.195262-.4714v-8.00001c0-.17681.0702379-.34638.195262-.4714.125024-.12503.294594-.19527.471405-.19527h1.333333v-.66666c0-1.06087.42143-2.07829 1.17157-2.82843.75015-.75015 1.76756-1.171574 2.82843-1.171574s2.07828.421424 2.82843 1.171574c.75014.75014 1.17157 1.76756 1.17157 2.82843zm-8.66667 1.33334v6.66664h9.33337v-6.66664zm4 2.66666h1.33334v1.33338h-1.33334zm-2.66666 0h1.33333v1.33338h-1.33333zm5.33333 0h1.33333v1.33338h-1.33333zm.66667-4v-.66666c0-.70725-.28095-1.38552-.78105-1.88562s-1.17838-.78105-1.88562-.78105-1.38552.28095-1.88562.78105-.78105 1.17837-.78105 1.88562v.66666z" fill="#282828"/></svg>