<svg width="24px" height="24px" viewBox="0 0 24 24" version="1.1"><title>95D83C40-D983-4410-87C9-908C7216D53A</title><g id="garage/CC/IB" stroke="none" stroke-width="1" fill="none" fill-rule="evenodd"><g id="dashboard_card-face_PIVOT" transform="translate(-221.000000, -1381.000000)" fill="#696B6F"><g id="navigation-" transform="translate(1.000000, 1372.000000)"><g id="Group-8-Copy-7" transform="translate(201.000000, 9.000000)"><g id="UI/ic/transactions" transform="translate(19.000000, 0.000000)"><path d="M19,4 C19.5522847,4 20,4.44771525 20,5 L20,19 C20,19.5522847 19.5522847,20 19,20 L5,20 C4.44771525,20 4,19.5522847 4,19 L4,5 C4,4.44771525 4.44771525,4 5,4 L19,4 Z M17,15 L10,15 L9.88337887,15.0067277 C9.38604019,15.0644928 9,15.4871642 9,16 C9,16.5522847 9.44771525,17 10,17 L10,17 L17,17 L17.1166211,16.9932723 C17.6139598,16.9355072 18,16.5128358 18,16 C18,15.4477153 17.5522847,15 17,15 L17,15 Z M7,15 C6.44771525,15 6,15.4477153 6,16 C6,16.5522847 6.44771525,17 7,17 C7.55228475,17 8,16.5522847 8,16 C8,15.4477153 7.55228475,15 7,15 Z M17,11 L10,11 L9.88337887,11.0067277 C9.38604019,11.0644928 9,11.4871642 9,12 C9,12.5522847 9.44771525,13 10,13 L10,13 L17,13 L17.1166211,12.9932723 C17.6139598,12.9355072 18,12.5128358 18,12 C18,11.4477153 17.5522847,11 17,11 L17,11 Z M7,11 C6.44771525,11 6,11.4477153 6,12 C6,12.5522847 6.44771525,13 7,13 C7.55228475,13 8,12.5522847 8,12 C8,11.4477153 7.55228475,11 7,11 Z M17,7 L10,7 L9.88337887,7.00672773 C9.38604019,7.06449284 9,7.48716416 9,8 C9,8.55228475 9.44771525,9 10,9 L10,9 L17,9 L17.1166211,8.99327227 C17.6139598,8.93550716 18,8.51283584 18,8 C18,7.44771525 17.5522847,7 17,7 L17,7 Z M7,7 C6.44771525,7 6,7.44771525 6,8 C6,8.55228475 6.44771525,9 7,9 C7.55228475,9 8,8.55228475 8,8 C8,7.44771525 7.55228475,7 7,7 Z" id="Combined-Shape"></path></g></g></g></g></g></svg>