<svg width="25" height="25" viewBox="0 0 25 25" fill="none" xmlns="http://www.w3.org/2000/svg">
<g id="Frame">
<g id="Group">
<path id="Vector" fill-rule="evenodd" clip-rule="evenodd" d="M4.155 5.24925C4.155 4.52525 4.742 3.93725 5.467 3.93725H7.548C7.75762 3.93725 7.95866 3.85405 8.10697 3.70593C8.25528 3.5578 8.33874 3.35687 8.339 3.14725V2.79025C8.339 2.58064 8.2558 2.3796 8.10768 2.23128C7.95955 2.08297 7.75862 1.99952 7.549 1.99925H5.466C4.60405 1.99925 3.7774 2.34166 3.16791 2.95116C2.55841 3.56065 2.216 4.3873 2.216 5.24925V7.33025C2.216 7.76725 2.57 8.12125 3.006 8.12125H3.363C3.57262 8.12125 3.77366 8.03805 3.92197 7.88993C4.07028 7.7418 4.15374 7.54087 4.154 7.33125V5.24825L4.155 5.24925ZM19.533 3.93725C20.258 3.93725 20.845 4.52525 20.845 5.24925V7.33025C20.845 7.76725 21.199 8.12125 21.635 8.12125H21.992C22.2016 8.12125 22.4027 8.03805 22.551 7.88993C22.6993 7.7418 22.7827 7.54087 22.783 7.33125V5.24825C22.783 4.3863 22.4406 3.55965 21.8311 2.95016C21.2216 2.34066 20.395 1.99825 19.533 1.99825H17.452C17.2424 1.99825 17.0413 2.08145 16.893 2.22958C16.7447 2.3777 16.6613 2.57864 16.661 2.78825V3.14525C16.661 3.58225 17.015 3.93625 17.451 3.93625L19.533 3.93725ZM6.236 7.11725C6.236 6.50925 6.729 6.01625 7.337 6.01625H9.403C10.011 6.01625 10.504 6.50925 10.504 7.11725V9.18325C10.504 9.79125 10.011 10.2843 9.403 10.2843H7.337C7.045 10.2843 6.76496 10.1683 6.55848 9.96178C6.352 9.7553 6.236 9.47526 6.236 9.18325V7.11725ZM7.751 7.80625C7.751 7.65425 7.874 7.53025 8.026 7.53025H8.714C8.866 7.53025 8.99 7.65425 8.99 7.80625V8.49425C8.99014 8.53054 8.98309 8.56648 8.96926 8.60003C8.95544 8.63358 8.93511 8.66405 8.90946 8.68971C8.8838 8.71536 8.85333 8.73569 8.81978 8.74951C8.78623 8.76334 8.75029 8.77039 8.714 8.77025H8.026C7.98981 8.77025 7.95396 8.76311 7.92053 8.74922C7.8871 8.73534 7.85674 8.715 7.83119 8.68935C7.80564 8.66371 7.78541 8.63328 7.77165 8.5998C7.75789 8.56632 7.75087 8.53045 7.751 8.49425V7.80625ZM14.497 7.11725C14.497 6.50925 14.99 6.01625 15.599 6.01625H17.664C18.272 6.01625 18.765 6.50925 18.765 7.11725V9.18325C18.765 9.79125 18.272 10.2843 17.664 10.2843H15.599C15.4543 10.2844 15.3111 10.256 15.1774 10.2007C15.0437 10.1455 14.9222 10.0644 14.8198 9.96213C14.7175 9.85988 14.6363 9.73846 14.5809 9.60482C14.5255 9.47117 14.497 9.32792 14.497 9.18325V7.11725ZM16.012 7.80625C16.012 7.65425 16.135 7.53025 16.287 7.53025H16.975C17.128 7.53025 17.251 7.65425 17.251 7.80625V8.49425C17.2511 8.53054 17.2441 8.56648 17.2303 8.60003C17.2164 8.63358 17.1961 8.66405 17.1705 8.68971C17.1448 8.71536 17.1143 8.73569 17.0808 8.74951C17.0472 8.76334 17.0113 8.77039 16.975 8.77025H16.287C16.2508 8.77025 16.215 8.76311 16.1815 8.74922C16.1481 8.73534 16.1177 8.715 16.0922 8.68935C16.0666 8.66371 16.0464 8.63328 16.0326 8.5998C16.0189 8.56632 16.0119 8.53045 16.012 8.49425V7.80625ZM7.337 14.2773C6.729 14.2773 6.236 14.7703 6.236 15.3793V17.4443C6.236 18.0523 6.729 18.5453 7.337 18.5453H9.403C10.011 18.5453 10.504 18.0523 10.504 17.4443V15.3793C10.504 14.7703 10.011 14.2773 9.403 14.2773H7.337ZM8.026 15.7923C7.95307 15.7923 7.88312 15.8212 7.83155 15.8728C7.77998 15.9244 7.751 15.9943 7.751 16.0673V16.7553C7.751 16.9073 7.874 17.0313 8.026 17.0313H8.714C8.75029 17.0314 8.78623 17.0243 8.81978 17.0105C8.85333 16.9967 8.8838 16.9764 8.90946 16.9507C8.93511 16.9251 8.95544 16.8946 8.96926 16.861C8.98309 16.8275 8.99014 16.7915 8.99 16.7553V16.0673C8.99 16.0311 8.98286 15.9952 8.96897 15.9618C8.95509 15.9284 8.93475 15.898 8.9091 15.8724C8.88346 15.8469 8.85303 15.8267 8.81955 15.8129C8.78607 15.7991 8.7502 15.7921 8.714 15.7923H8.026ZM16.425 11.5233C16.3527 11.5231 16.2811 11.5373 16.2142 11.5648C16.1474 11.5924 16.0866 11.6329 16.0354 11.684C15.9843 11.7351 15.9437 11.7958 15.916 11.8625C15.8883 11.9293 15.874 12.0009 15.874 12.0733V12.4873C15.874 12.7913 16.121 13.0373 16.424 13.0373H17.251V17.0313H16.425C16.3527 17.0311 16.2811 17.0452 16.2142 17.0728C16.1474 17.1004 16.0866 17.1409 16.0354 17.192C15.9843 17.2431 15.9437 17.3038 15.916 17.3705C15.8883 17.4373 15.874 17.5089 15.874 17.5813V17.9943C15.874 18.2993 16.121 18.5453 16.424 18.5453H18.214C18.2863 18.5454 18.3579 18.5313 18.4248 18.5037C18.4916 18.4761 18.5524 18.4356 18.6036 18.3845C18.6547 18.3334 18.6953 18.2728 18.723 18.206C18.7507 18.1392 18.765 18.0676 18.765 17.9953V12.0743C18.765 11.9284 18.7071 11.7885 18.6039 11.6853C18.5008 11.5822 18.3609 11.5243 18.215 11.5243H16.425V11.5233ZM13.258 17.0313V15.7913H15.461C15.6069 15.7913 15.7468 15.7333 15.8499 15.6302C15.9531 15.527 16.011 15.3871 16.011 15.2413V14.8283C16.0111 14.7559 15.997 14.6843 15.9694 14.6175C15.9418 14.5506 15.9014 14.4899 15.8503 14.4387C15.7992 14.3875 15.7385 14.3469 15.6717 14.3192C15.6049 14.2915 15.5333 14.2773 15.461 14.2773H12.308C12.1582 14.2773 12.0144 14.3368 11.9085 14.4427C11.8025 14.5487 11.743 14.6924 11.743 14.8423V17.9943C11.743 18.2993 11.99 18.5453 12.294 18.5453H14.084C14.2299 18.5453 14.3698 18.4873 14.4729 18.3842C14.5761 18.281 14.634 18.1411 14.634 17.9953V17.5813C14.634 17.4354 14.5761 17.2955 14.4729 17.1923C14.3698 17.0892 14.2299 17.0313 14.084 17.0313H13.258ZM12.294 6.01725C12.2218 6.01725 12.1503 6.03148 12.0835 6.05912C12.0168 6.08676 11.9562 6.12727 11.9051 6.17834C11.854 6.22942 11.8135 6.29005 11.7859 6.35678C11.7582 6.42351 11.744 6.49503 11.744 6.56725V11.5233H9.54C9.46769 11.5233 9.39609 11.5375 9.3293 11.5652C9.2625 11.5929 9.20183 11.6335 9.15074 11.6847C9.09966 11.7359 9.05916 11.7966 9.03158 11.8635C9.004 11.9303 8.98987 12.0019 8.99 12.0743V12.4873C8.99 12.7913 9.236 13.0373 9.54 13.0373H14.084C14.2299 13.0373 14.3698 12.9793 14.4729 12.8762C14.5761 12.773 14.634 12.6331 14.634 12.4873V12.0743C14.634 11.9284 14.5761 11.7885 14.4729 11.6853C14.3698 11.5822 14.2299 11.5243 14.084 11.5243H13.258V6.56725C13.2581 6.49494 13.244 6.42331 13.2164 6.35647C13.1888 6.28963 13.1484 6.22888 13.0973 6.1777C13.0462 6.12652 12.9855 6.08592 12.9187 6.05821C12.8519 6.03051 12.7803 6.01625 12.708 6.01625L12.294 6.01725ZM6.787 11.5233C6.71469 11.5231 6.64306 11.5373 6.57622 11.5648C6.50938 11.5924 6.44863 11.6329 6.39745 11.684C6.34627 11.7351 6.30567 11.7958 6.27797 11.8625C6.25026 11.9293 6.236 12.0009 6.236 12.0733V12.4873C6.236 12.7913 6.483 13.0373 6.786 13.0373H7.2C7.34587 13.0373 7.48577 12.9793 7.58891 12.8762C7.69206 12.773 7.75 12.6331 7.75 12.4873V12.0743C7.75 11.9284 7.69206 11.7885 7.58891 11.6853C7.48577 11.5822 7.34587 11.5243 7.2 11.5243H6.787V11.5233ZM5.467 20.6253C5.29467 20.6254 5.12401 20.5915 4.96477 20.5257C4.80553 20.4598 4.66084 20.3631 4.53899 20.2413C4.41713 20.1194 4.32049 19.9747 4.25461 19.8155C4.18872 19.6563 4.15487 19.4856 4.155 19.3133V17.2323C4.155 17.0226 4.0718 16.8216 3.92368 16.6733C3.77555 16.525 3.57462 16.4415 3.365 16.4413H3.008C2.79822 16.4413 2.59702 16.5246 2.44868 16.6729C2.30034 16.8213 2.217 17.0225 2.217 17.2323V19.3133C2.217 20.1752 2.55941 21.0019 3.16891 21.6114C3.7784 22.2208 4.60505 22.5633 5.467 22.5633H7.548C7.75762 22.5633 7.95866 22.4801 8.10697 22.3319C8.25528 22.1838 8.33874 21.9829 8.339 21.7733V21.4163C8.339 21.2066 8.2558 21.0056 8.10768 20.8573C7.95955 20.709 7.75862 20.6255 7.549 20.6253H5.467ZM20.845 19.3133C20.845 20.0383 20.258 20.6253 19.533 20.6253H17.452C17.2424 20.6253 17.0413 20.7085 16.893 20.8566C16.7447 21.0047 16.6613 21.2056 16.661 21.4153V21.7723C16.661 22.2093 17.015 22.5633 17.451 22.5633H19.533C20.395 22.5633 21.2216 22.2208 21.8311 21.6114C22.4406 21.0019 22.783 20.1752 22.783 19.3133V17.2323C22.783 17.0226 22.6998 16.8216 22.5517 16.6733C22.4036 16.525 22.2026 16.4415 21.993 16.4413H21.636C21.4262 16.4413 21.225 16.5246 21.0767 16.6729C20.9283 16.8213 20.845 17.0225 20.845 17.2323V19.3133Z" fill="#191C1F"/>
</g>
</g>
</svg>
